<?xml version="1.0" encoding="UTF-8" standalone="no"?>
<svg
   xmlns:dc="http://purl.org/dc/elements/1.1/"
   xmlns:cc="http://creativecommons.org/ns#"
   xmlns:rdf="http://www.w3.org/1999/02/22-rdf-syntax-ns#"
   xmlns:svg="http://www.w3.org/2000/svg"
   xmlns="http://www.w3.org/2000/svg"
   xmlns:sodipodi="http://sodipodi.sourceforge.net/DTD/sodipodi-0.dtd"
   xmlns:inkscape="http://www.inkscape.org/namespaces/inkscape"
   version="1.1"
   id="svg2"
   width="407.04001"
   height="131.52"
   viewBox="0 0 407.04001 131.52"
   sodipodi:docname="Aebi Logo.svg"
   inkscape:version="1.0.2 (1.0.2+r75+1)">
  <metadata
     id="metadata8">
    <rdf:RDF>
      <cc:Work
         rdf:about="">
        <dc:format>image/svg+xml</dc:format>
        <dc:type
           rdf:resource="http://purl.org/dc/dcmitype/StillImage" />
        <dc:title></dc:title>
      </cc:Work>
    </rdf:RDF>
  </metadata>
  <defs
     id="defs6" />
  <sodipodi:namedview
     pagecolor="#ffffff"
     bordercolor="#666666"
     borderopacity="1"
     objecttolerance="10"
     gridtolerance="10"
     guidetolerance="10"
     inkscape:pageopacity="0"
     inkscape:pageshadow="2"
     inkscape:window-width="1366"
     inkscape:window-height="707"
     id="namedview4"
     showgrid="false"
     inkscape:zoom="1.3435675"
     inkscape:cx="203.52"
     inkscape:cy="65.760002"
     inkscape:window-x="0"
     inkscape:window-y="0"
     inkscape:window-maximized="1"
     inkscape:current-layer="g10"
     inkscape:document-rotation="0" />
  <g
     inkscape:groupmode="layer"
     inkscape:label="Image"
     id="g10">
    <rect
       style="opacity:1;fill:#ffffff;stroke-width:4.24944;stroke-linejoin:round"
       id="rect8"
       width="407.04001"
       height="131.52"
       x="0"
       y="0" />
    <path
       style="fill:#ba1925;stroke:none;stroke-width:0.32"
       d="m 157.64451,24.992818 v 78.720002 h 1.28 V 24.992818 h -1.28 m 143.68001,76.800002 h 12.16 l 4.37344,-0.16 0.42656,-5.600003 c 2.48896,2.702083 4.864,4.900803 8.32,6.293443 9.1136,3.67008 20.2976,-1.05952 25.4944,-8.853443 2.0928,-3.1392 3.2896,-6.89312 4.0512,-10.56 1.9872,-9.52672 1.232,-20.91328 -5.0112,-28.8 -5.472,-6.90976 -15.2896,-9.4816 -23.5744,-6.72 -3.0976,1.03264 -7.06176,3.21248 -8.32,6.4 h -0.32 V 27.552818 h -13.12 l -4.32,0.42666 -0.16,5.013339 v 14.08 54.720003 m 63.68,-60.480003 h 17.6 V 27.552818 h -13.12 l -4.32,0.37334 -0.16,3.786659 v 9.6 m -184.96001,23.36 h 11.2 c 1.37024,0 3.52,0.4096 4.8,-0.10656 1.06944,-0.43136 1.26592,-2.53536 1.97344,-3.41344 2.00416,-2.488 4.56672,-3.2 7.62656,-3.2 1.80897,0 3.91617,0.32832 5.44001,1.38656 2.77792,1.92928 3.87968,5.94688 0.64,8.10688 -2.10592,1.40384 -5.5792,1.43744 -8.00001,1.70656 -8.56608,0.95168 -20.43904,2.09696 -24.58656,10.88 -2.61408,5.53536 -1.59008,13.68832 2.61312,18.186563 2.34944,2.51424 5.85792,4.056 9.17344,4.74688 8.2384,1.71616 16.62465,-0.73984 23.04001,-5.973443 l 1.06656,4.640003 4.69344,0.16 h 13.12 c -3.62752,-9.846403 -2.24,-21.253123 -2.24,-31.680003 0,-5.95328 0.52,-11.9504 -3.30656,-16.96 -3.54272,-4.63776 -9.83072,-5.87296 -15.25344,-6.4 -11.17889,-1.08672 -26.91457,-0.21632 -31.14657,12.48 -0.60576,1.81696 -0.85344,3.53088 -0.85344,5.44 m 113.60001,20.8 h -11.52 c -1.33664,0 -3.50016,-0.41952 -4.74656,0.05344 -0.76576,0.29024 -1.1856,1.56992 -1.70688,2.18656 -0.88864,1.05152 -2.19552,2.0128 -3.46656,2.56 -8.03392,3.4592 -16.7296,-2.1264 -16.96,-10.88 h 20.16 14.08 c 1.17472,0 4.15872,0.536 5.01344,-0.37344 1.0352,-1.10144 0.10656,-4.31296 0.10656,-5.70656 0,-6.8 -3.2512,-15.19968 -8.32,-19.84 -11.68416,-10.69696 -31.47456,-9.01056 -41.92,2.56 -3.89056,4.30976 -5.43072,9.50624 -6.50656,15.04 -1.14208,5.87264 0.2704,13.31232 3.04,18.56 7.31264,13.855683 27.35744,17.227843 40.58656,10.613443 5.52992,-2.765123 11.63328,-8.101763 12.16,-14.773443 m -254.079998,4.16 h -0.32 v -18.56 h -7.68 l -2.82666,0.16 -0.37334,2.08 v 5.44 23.040003 h 11.52 l 4.8,-0.16 3.30656,-4.000003 7.04,-9.28 21.12,-27.84 6.08,-8 3.09344,-4.48 h -10.24 l -4.16,0.16 -2.50656,3.04 -6.08,8 -16,21.12 -4.32,5.76 -2.45344,3.52 m 17.92,12.160003 h 10.24 l 4.10656,-0.16 3.36,-4.320003 7.04,-9.28 21.119988,-27.84 6.08,-8 2.77344,-4.16 h -10.23999 l -4.160007,0.16 -3.14655,4 -7.040001,9.28 -21.28,28.16 -6.08,8 -2.77344,4.160003 m 26.88,0 h 10.240001 l 4.16,-0.16 2.666557,-3.36 6.55999,-8.640003 16.58688,-21.76 5.86656,-7.68 v 18.56 l 10.88,-0.32 v -22.08 -5.76 l -0.16,-2.18656 -3.68,-0.37344 h -9.28 l -3.73344,0.37344 -3.09312,4.10656 -6.08,8 -18.879987,24.96 -8.320001,10.88 -3.73344,5.440003 M 365.00452,48.032817 v 53.760003 h 17.6 V 48.032817 h -17.6 m -88,21.12 h -21.76 c 0.58688,-3.18656 1.81536,-6.49792 4.48,-8.53344 7.3728,-5.632 16.59744,-0.11136 17.28,8.53344 m 51.2,-9.22656 c 4.2688,-0.65216 8.0928,2.27968 9.7056,6.02656 2.1568,5.00672 2.1024,11.50848 0.32,16.64 -1.1456,3.30656 -3.7376,6.6256 -7.4656,7.04 -2.5888,0.28768 -5.4368,0.17056 -7.68,-1.38656 -3.07328,-2.1344 -3.99648,-5.69152 -4.48,-9.17344 -1.08192,-7.79072 0.26432,-17.72032 9.6,-19.14656 m -114.56,16.90656 c 0,2.89888 0.0314,5.83968 -0.74656,8.64 -1.38464,4.984 -4.97472,6.72 -9.81345,6.72 -1.8144,0 -3.55904,0.0176 -5.12,-1.06656 -4.04704,-2.81056 -2.68704,-8.41664 1.28,-10.4 1.49216,-0.74624 3.15616,-1.28032 4.8,-1.6 3.22977,-0.62816 6.39137,-1.7024 9.60001,-2.29344 z"
       id="path22" />
  </g>
</svg>
