<?xml version="1.0" encoding="UTF-8"?>
<!DOCTYPE svg PUBLIC "-//W3C//DTD SVG 1.1//EN" "http://www.w3.org/Graphics/SVG/1.1/DTD/svg11.dtd">
<!-- Creator: CorelDRAW 2019 (64-Bit) -->
<svg xmlns="http://www.w3.org/2000/svg" xml:space="preserve" width="198.027mm" height="79.7606mm" version="1.1" style="shape-rendering:geometricPrecision; text-rendering:geometricPrecision; image-rendering:optimizeQuality; fill-rule:evenodd; clip-rule:evenodd"
viewBox="0 0 198.7756 80.062"
 xmlns:xlink="http://www.w3.org/1999/xlink"
 xmlns:xodm="http://www.corel.com/coreldraw/odm/2003">
 <defs>
  <style type="text/css">
   <![CDATA[
    .fil0 {fill:#000001}
    .fil1 {fill:#86C400}
    .fil2 {fill:#FEFEFE}
   ]]>
  </style>
 </defs>
 <g id="Layer_x0020_1">
  <metadata id="CorelCorpID_0Corel-Layer"/>
  <g id="_853392368">
   <path class="fil0" d="M165.1468 9.5735c-0.2837,-0.4627 -0.1297,-0.4923 -0.5816,-0.9517 -0.8147,-0.8286 -1.7102,-1.0466 -2.5308,-1.6131 0.7431,-0.0171 3.1241,0.4977 3.958,0.6619 0.6651,0.131 1.0303,0.5784 1.384,0.9369 0.3774,0.3828 0.8399,0.7509 1.0461,1.2525l-3.2757 -0.2866zm-20.7479 -9.5735l0 0 -0.3014 0 0.7247 4.5069c-0.831,0.3376 -5.9326,1.4264 -7.1648,1.6898 -11.0859,2.3694 -24.0457,6.1954 -34.4793,10.265 -1.0949,0.427 -2.1079,0.8529 -3.158,1.2689 -0.98,0.3883 -2.2428,1.067 -3.3039,1.2394 -15.2891,2.485 -25.7714,3.5641 -41.5687,2.1861 -9.9173,-0.8651 -18.6896,-1.7644 -28.4463,-2.8736 -1.1873,-0.135 -2.9958,-0.4556 -4.1163,-0.4294 1.1328,0.5893 10.789,3.1323 12.1433,3.4837 4.134,1.0726 8.5709,2.0654 12.852,2.8755 4.4054,0.8335 8.8031,1.6454 13.302,2.3158 2.2946,0.3421 4.53,0.6582 6.8738,0.9483 2.3315,0.2886 4.8163,0.4403 7.1278,0.7905 -0.5615,0.1733 -1.7531,0.7776 -2.4229,1.0634 -0.9,0.3839 -1.7142,0.77 -2.5949,1.1322 -9.0797,3.7348 -26.0678,12.504 -34.4765,17.504 -9.585,5.6999 -22.4466,13.6956 -31.2643,20.71l-3.1355 2.459c-0.3776,0.3154 -0.7411,0.5375 -0.9896,0.9352 1.0874,-0.7064 12.4745,-6.3193 13.6789,-6.8899 14.4804,-6.8605 28.096,-12.9006 43.5488,-18.3357 19.3467,-6.8049 45.8099,-14.8921 68.8277,-12.7497 -0.2342,1.0047 -0.7079,2.1514 -1.0551,3.1403 -0.5299,1.5086 -2.9084,8.1125 -3.0916,9.1598l3.7885 -1.3578c1.3806,-0.4425 2.6927,-0.801 4.1079,-1.1356 2.8823,-0.6817 5.8064,-1.2363 8.7905,-1.7016 17.0118,-2.6533 36.7094,-3.0559 54.1709,-3.1192 1.5382,-0.0055 3.6711,0.17 5.0923,0.03 -1.5049,-0.632 -10.0496,-2.3897 -12.1541,-2.7942 -11.1698,-2.147 -22.613,-3.7993 -34.0764,-3.8015 -1.2145,-0.0001 -2.4842,-0.0109 -3.6611,0.0323 -1.121,0.0413 -2.6342,0.2249 -3.6503,0.181 0.8037,-3.2439 4.9271,-9.6643 6.7285,-11.3905l6.8807 2.5447c1.2197,0.4267 6.2856,2.232 7.3135,2.071 0.3983,-0.4344 0.3341,-0.603 0.4018,-1.3641 0.9739,-0.6723 2.9731,-0.9101 1.9571,-2.8786 -0.8023,0.446 -1.3078,0.7004 -2.5453,0.6119 -0.7754,-0.0556 -0.8782,-0.5172 -1.9855,-1.3642 -0.7892,-0.6036 -3.1607,-2.371 -3.9015,-2.7388 0.3638,-0.2743 6.0254,-1.5605 6.4573,-1.6682 1.7341,-0.4324 2.4373,1.686 1.671,3.4272 -0.2713,0.6162 -0.5312,0.7608 -0.8066,1.1718 1.3197,0.0582 2.8523,-1.3054 3.6815,-2.1444 0.6485,-0.6562 0.7127,-1.0327 0.9158,-1.1806 0.4733,-0.3443 3.5834,-0.2708 3.8656,-4.3072 0.2826,-0.1402 0.4285,0.0913 0.6871,-0.4659 0.5171,-1.1148 -0.7594,-1.6809 -1.9235,-2.2789 -1.1178,-0.5741 -2.8768,-1.361 -4.1336,-1.695 0.1141,-1.7968 -0.308,-2.1406 -1.4248,-2.8822 -2.1093,-1.4012 -7.0784,-3.7024 -9.5998,-3.1138 -2.25,0.5251 -13.1549,-2.395 -14.1572,-3.0828z"/>
   <path class="fil1" d="M47.3421 70.2498c0.2197,-1.1926 0.8517,-2.8375 1.25,-4.0789 0.3693,-1.1509 1.0025,-2.8063 1.2821,-3.905l-0.0191 7.9769 -2.5131 0.0069zm20.923 -6.2367l0 0c0.0438,-0.8203 0.6894,-5.5153 0.8865,-5.9265 1.5609,-0.1838 2.5116,0.3774 2.5116,1.9308 0,2.2198 -1.2129,4.2265 -3.3981,3.9957zm-6.3119 -10.8204l0 0c-0.7584,5.725 -2.0497,12.8632 -3.0298,18.795l-1.1202 6.2548 -1.8899 -25.078c-0.7105,-0.1508 -8.3111,-0.1207 -9.1699,0.0034l-7.6485 19.8317c-0.4319,1.1518 -2.3912,5.9751 -2.5224,6.7427l7.7075 0.0085 1.1381 -3.4332 4.5724 -0.0444 0.0195 3.4657 15.6126 0.0144c0.3868,-0.6445 1.3187,-7.8805 1.6033,-9.2749 0.3747,0.4975 2.1341,8.6352 2.308,9.2842l7.7963 0.0152c0.1053,-0.9586 -2.7792,-9.0856 -2.8626,-10.5562 0.8155,-0.3819 2.1488,-1.5478 2.7522,-2.1525 0.6659,-0.6673 1.3428,-2.0672 1.7369,-3.1585 2.0613,-5.7035 -0.4238,-10.5402 -7.3886,-10.9048l-9.6148 0.1871z"/>
   <path class="fil1" d="M172.115 62.2303l-0.0097 8.0583 -2.5127 -0.0082 2.5224 -8.0501zm-18.2577 17.8317l0 0 2.1053 0c1.3084,-0.5469 8.5261,-0.2605 10.6345,-0.3164l1.126 -3.4501 4.4787 0.0955 0.2356 3.3915 7.6306 0.0054 -2.164 -26.7101 -9.2071 0.0378c-0.2691,0.9285 -0.85,2.2545 -1.2171,3.1761 -0.9999,2.51 -7.9495,20.8061 -8.5201,21.6795l0.6022 -4.9099c-2.4903,0.3615 -4.3453,0.4911 -5.4926,-1.2666 -0.9859,-1.5106 -0.8432,-4.3018 -0.4898,-6.2155 0.4158,-2.2532 1.189,-3.5602 2.4227,-4.7997 1.5705,-1.5772 3.2208,-1.2377 5.6761,-0.9391 0.0387,-0.326 1.0501,-6.2086 0.7768,-6.4811 -0.9191,-0.5155 -4.8684,-0.4794 -6.1375,-0.2946 -5.3774,0.7829 -8.3298,4.5446 -10.0494,9.8667 -1.1709,3.6234 -1.3515,7.7672 0.0352,11.3848 2.1064,5.4935 6.4512,5.2175 7.5538,5.7457z"/>
   <path class="fil1" d="M180.8803 59.5557l4.2778 -0.1088 -3.0229 20.2696 7.7452 0.015 3.2866 -20.1521 4.7191 -0.0057 0.8895 -6.4544c-1.7981,-0.0733 -16.4002,-0.14 -17.012,0.0783l-0.8833 6.3581z"/>
   <polygon class="fil1" points="114.8074,53.1022 97.5478,53.12 96.7556,59.5532 101.0843,59.572 97.9952,79.753 105.531,79.7417 109.038,59.5635 113.8797,59.5625 "/>
   <path class="fil1" d="M139.0419 59.6627c0.2059,-0.4007 0.9583,-5.8476 0.9205,-6.495 -4.8527,-0.8038 -8.8392,-0.4463 -11.829,2.2322 -5.3453,4.7885 -7.455,16.0114 -2.7915,21.5801 3.7366,4.4621 10.2095,2.7273 10.7864,2.0272 0.2398,-0.4209 0.8143,-5.2453 0.8558,-6.0738 -2.4707,0.2571 -4.2108,0.6049 -5.4933,-1.2856 -1.489,-2.1948 -0.9072,-8.1794 1.893,-10.9941 0.709,-0.7125 1.1673,-0.9691 2.4624,-1.1609 1.3516,-0.2003 2.0893,0.1405 3.1957,0.1698z"/>
   <path class="fil1" d="M96.6593 53.2581c-0.3897,-0.2406 -1.0274,-0.2872 -1.5587,-0.3427 -1.7931,-0.1875 -3.4988,-0.2623 -5.2694,0.09 -2.0497,0.4078 -3.7868,1.271 -4.9793,2.3513 -2.2981,2.0813 -4.2302,5.5335 -5.0476,9.6434 -1.1667,5.8663 0.4804,13.4207 6.8076,14.7144 1.9005,0.3887 4.7396,0.175 6.1918,-0.6626 0.2233,-0.4604 0.9168,-5.4463 0.8615,-6.1655 -5.6782,1.3867 -6.9208,-2.2312 -5.9745,-7.4797 0.3673,-2.038 1.2861,-3.7603 2.4073,-4.8033 1.7326,-1.6123 3.1872,-1.1591 5.699,-0.9155l0.8623 -6.4298z"/>
   <path class="fil1" d="M118.8807 79.7412c0.2891,-0.4876 3.083,-17.9601 3.3753,-19.9653 0.2231,-1.5296 0.9997,-5.5572 1.0653,-6.653 -1.3241,-0.0812 -6.5988,-0.176 -7.66,0.0429l-4.1661 26.5891 7.3855 -0.0137z"/>
   <path class="fil2" d="M68.2651 64.0131c2.1852,0.2308 3.3981,-1.776 3.3981,-3.9957 0,-1.5533 -0.9507,-2.1146 -2.5116,-1.9308 -0.1971,0.4112 -0.8428,5.1062 -0.8865,5.9265z"/>
   <path class="fil2" d="M47.3421 70.2498l2.5131 -0.0069 0.0191 -7.9769c-0.2797,1.0987 -0.9128,2.7541 -1.2821,3.905 -0.3983,1.2414 -1.0303,2.8863 -1.25,4.0789z"/>
   <polygon class="fil2" points="169.5926,70.2804 172.1053,70.2886 172.115,62.2303 "/>
   <path class="fil1" d="M165.1468 9.5735l3.2757 0.2866c-0.2063,-0.5016 -0.6687,-0.8697 -1.0461,-1.2525 -0.3537,-0.3585 -0.7189,-0.8059 -1.384,-0.9369 -0.8339,-0.1642 -3.2149,-0.679 -3.958,-0.6619 0.8206,0.5664 1.7162,0.7845 2.5308,1.6131 0.4519,0.4594 0.2979,0.4889 0.5816,0.9517z"/>
  </g>
 </g>
</svg>
